Coordinates
version=1
nRows=9
nColumns=24
inDegrees=yes

Units are S.I. units (second, meters, Newtons, ...)
Angles are in degrees.

endheader
time	pelvis_tilt	pelvis_list	pelvis_rotation	pelvis_tx	pelvis_ty	pelvis_tz	hip_flexion_r	hip_adduction_r	hip_rotation_r	knee_angle_r	ankle_angle_r	subtalar_angle_r	mtp_angle_r	hip_flexion_l	hip_adduction_l	hip_rotation_l	knee_angle_l	ankle_angle_l	subtalar_angle_l	mtp_angle_l	lumbar_extension	lumbar_bending	lumbar_rotation
      1.15000000	      6.82438951	     -3.30709291	     -9.64995029	     -0.58788935	      0.97284005	      0.09769981	    -24.38140862	     -0.03387853	    -11.59231202	     -9.70121998	     11.65664695	     18.81876654	      6.00050163	     18.36175434	     -8.69593543	    -35.00713832	     -8.46312582	     -2.65153200	      5.88367071	     15.92072665	    -12.15521984	     -7.47504444	    -15.60209744
      1.15500000	      6.83225047	     -3.28312156	     -9.76146310	     -0.58107376	      0.97197945	      0.09706131	    -24.71469248	     -0.23008343	    -11.58289742	     -9.82895805	     11.35195655	     18.67328686	      7.82200186	     18.36333608	     -8.68532587	    -34.63883525	     -8.97060320	     -2.94230142	      5.48865507	     16.22491616	    -12.14729152	     -7.64413677	    -15.51378997
      1.16000000	      6.83075683	     -3.24004326	     -9.90034088	     -0.57424331	      0.97119111	      0.09640931	    -24.99955631	     -0.46445410	    -11.50092417	    -10.04369305	     11.31790430	     18.55882646	      7.86524057	     18.35467174	     -8.66113058	    -34.30644253	     -9.48677074	     -3.27189971	      5.05943404	     16.19738426	    -12.12051921	     -7.83217387	    -15.38289436
      1.16500000	      6.81956693	     -3.19126104	    -10.00276246	     -0.56739604	      0.97045810	      0.09568835	    -25.25848191	     -0.69041313	    -11.44471609	    -10.28548229	     11.23254200	     18.40394641	      7.94851390	     18.36185112	     -8.62474090	    -33.92251293	    -10.02324535	     -3.70103548	      4.55458172	     16.19996704	    -12.08894815	     -8.02035489	    -15.28829721
      1.17000000	      6.80701796	     -3.14159907	    -10.06363680	     -0.56051912	      0.96978689	      0.09489847	    -25.50277006	     -0.90165743	    -11.42116767	    -10.53153765	     10.88183959	     18.16427514	      9.57782038	     18.38138514	     -8.58247004	    -33.49927037	    -10.58403708	     -4.30739367	      3.89989753	     17.35340763	    -12.05886649	     -8.20544131	    -15.23323459
      1.17500000	      6.79762770	     -3.05564301	    -10.17072621	     -0.55362181	      0.96924542	      0.09412823	    -25.71056338	     -1.17758502	    -11.31629388	    -10.84642410	     10.72811899	     17.97511133	      9.64154961	     18.37003157	     -8.51733440	    -33.17049572	    -11.13472715	     -4.87096425	      3.33323934	     17.26596225	    -12.01857560	     -8.43329397	    -15.10605536
      1.18000000	      6.78416040	     -2.99341698	    -10.20350820	     -0.54673655	      0.96876215	      0.09323818	    -25.90120037	     -1.39800853	    -11.25707483	    -11.16988545	     10.24949096	     17.61571394	     11.67111019	     18.39841235	     -8.46791600	    -32.75190974	    -11.74565750	     -5.50014109	      2.57841213	     17.85980586	    -11.99588441	     -8.62241660	    -15.07125254
      1.18500000	      6.76899704	     -2.87305270	    -10.29089849	     -0.53978323	      0.96842857	      0.09240238	    -26.04495972	     -1.70771377	    -11.14186505	    -11.57520787	      9.99840940	     17.38067217	     11.72247361	     18.39111325	     -8.37803139	    -32.46471471	    -12.32441119	     -6.12352771	      1.94097921	     17.75999080	    -11.94076546	     -8.88468889	    -14.94434543
      1.19000000	      6.76838255	     -2.80223380	    -10.29497108	     -0.53286870	      0.96817144	      0.09143372	    -26.18818937	     -1.93580131	    -11.05277136	    -11.99469123	      9.38453361	     16.92738069	     14.05080164	     18.40321518	     -8.32464849	    -32.06124313	    -12.96229204	     -6.76346437	      1.14103375	     18.28035907	    -11.93429240	     -9.07770063	    -14.90639273
